<?xml version="1.0" encoding="UTF-8"?>
<!DOCTYPE svg PUBLIC "-//W3C//DTD SVG 1.1//EN" "http://www.w3.org/Graphics/SVG/1.1/DTD/svg11.dtd">
<!-- Creator: CorelDRAW X7 -->
<svg xmlns="http://www.w3.org/2000/svg" xml:space="preserve" width="87.382mm" height="74.11mm" version="1.1" style="shape-rendering:geometricPrecision; text-rendering:geometricPrecision; image-rendering:optimizeQuality; fill-rule:evenodd; clip-rule:evenodd"
viewBox="0 0 8738 7411"
 xmlns:xlink="http://www.w3.org/1999/xlink">
 <defs>
  <style type="text/css">
   <![CDATA[
    .fil8 {fill:#EFAE4B}
    .fil6 {fill:#393B3D}
    .fil7 {fill:#427DBF}
    .fil2 {fill:black}
    .fil1 {fill:#333333}
    .fil5 {fill:#8FBA23}
    .fil9 {fill:#A5D42E}
    .fil3 {fill:#A5D42E}
    .fil0 {fill:#333333;fill-rule:nonzero}
    .fil4 {fill:#A5D42E;fill-rule:nonzero}
   ]]>
  </style>
 </defs>
 <g id="Camada_x0020_1">
  <metadata id="CorelCorpID_0Corel-Layer"/>
  <g id="_2213129274032">
   <path class="fil0" d="M2791 5324l88 0 0 -448c0,-29 11,-36 32,-36l220 0 0 484 88 0 0 -484 142 0c83,0 111,49 111,125l0 359 88 0 0 -375c0,-128 -67,-180 -188,-180l-496 0c-61,0 -85,33 -85,91l0 464zm1351 -555l-88 0 0 448c0,28 -11,36 -32,36l-158 0c-84,0 -111,-49 -111,-125l0 -359 -88 0 0 375c0,128 67,180 187,180l205 0c61,0 85,-32 85,-91l0 -464zm105 555l88 0 0 -448c0,-29 12,-36 33,-36l151 0c84,0 112,49 112,125l0 359 88 0 0 -375c0,-128 -67,-180 -188,-180l-199 0c-61,0 -85,33 -85,91l0 464zm959 0c64,0 85,-32 85,-87l0 -646 -88 0 0 178 -167 0c-183,0 -230,104 -230,277 0,178 47,278 230,278l170 0zm-3 -483l0 372c0,28 -8,40 -37,40l-113 0c-133,0 -155,-70 -155,-207 0,-131 22,-205 155,-205l150 0zm460 -79c-199,0 -285,73 -285,282 0,211 86,286 285,286 199,0 285,-75 285,-286 0,-209 -86,-282 -285,-282zm-193 282c0,-157 51,-210 193,-210 141,0 192,53 192,210 0,157 -51,215 -192,215 -142,0 -193,-58 -193,-215z"/>
   <path class="fil1" d="M4535 3609c-145,232 -160,394 158,379 -175,5 -224,-125 -158,-379z"/>
   <path class="fil1" d="M2968 2822c193,0 350,157 350,350 0,193 -157,350 -350,350 -193,0 -350,-157 -350,-350 0,-193 157,-350 350,-350zm-224 207c32,0 58,28 58,63 0,36 -26,64 -58,64 -33,0 -59,-28 -59,-64 0,-35 26,-63 59,-63z"/>
   <path class="fil1" d="M6150 2822c193,0 350,157 350,350 0,193 -157,350 -350,350 -193,0 -350,-157 -350,-350 0,-193 157,-350 350,-350zm-204 207c32,0 59,28 59,63 0,36 -27,64 -59,64 -32,0 -58,-28 -58,-64 0,-35 26,-63 58,-63z"/>
   <path class="fil2" d="M565 3378c-197,289 -285,559 -283,815 200,71 518,47 968,-84 51,-10 85,-31 97,-68l-534 -802c-110,21 -197,63 -248,139z"/>
   <path class="fil2" d="M7638 4029c310,174 587,253 823,214 62,-189 -5,-458 -189,-800l-106 -18 -597 502 69 102z"/>
   <path class="fil1" d="M1617 2603c37,-498 219,-969 328,-1476 123,-574 506,-784 855,-867 535,-127 1374,-129 2543,-97 234,12 314,20 628,40 6,-55 -39,-130 -79,-203 57,-3 117,67 178,246 55,-15 110,-21 173,12 -54,14 -79,37 -71,69 283,56 565,202 847,583 268,409 327,549 339,971 45,287 125,572 273,853 463,-62 818,43 1037,363 -179,-66 -307,-74 -386,-26 305,220 407,525 456,852 -164,-273 -351,-396 -545,-471 99,200 211,393 145,679 -239,40 -470,-46 -699,-173 71,207 251,394 479,571 -363,-46 -620,-208 -813,-439 -46,105 -46,222 -21,344 -173,-125 -310,-256 -386,-398 341,-382 269,-750 90,-1115 -57,268 -126,495 -199,708 -66,-185 -130,-360 -137,-649 29,-176 34,-343 9,-501 -547,-353 -921,-732 -1115,-1137 -8,354 -106,586 -281,714 14,-176 26,-351 -24,-533 -212,530 -609,773 -1092,879 89,-248 126,-521 53,-851 -498,514 -1063,922 -1789,1076 28,378 -13,713 -141,995 -18,-252 -79,-482 -205,-674 -206,268 -223,607 50,1055 -21,303 -186,497 -436,628 53,-137 89,-276 91,-421 -452,352 -794,408 -1117,413 237,-178 503,-328 645,-598 -351,118 -634,148 -839,75 5,-281 112,-549 290,-809 -310,123 -532,311 -751,500 96,-388 311,-726 652,-1012 -123,-19 -272,-1 -422,18 402,-356 865,-455 1387,-194z"/>
   <path class="fil3" d="M3186 1847c502,0 929,320 1090,767l0 0 655 1c-2,5 263,-768 1090,-768 639,0 1157,518 1157,1157 0,639 -518,1157 -1157,1157 -639,0 -1157,-518 -1157,-1157 0,-35 1,-71 4,-105l-529 8c3,32 4,64 4,97 0,639 -518,1157 -1157,1157 -639,0 -1157,-518 -1157,-1157 0,-639 518,-1157 1157,-1157zm2835 176c542,0 981,439 981,981 0,542 -439,982 -981,982 -542,0 -982,-440 -982,-982 0,-542 440,-981 982,-981zm-2835 0c542,0 982,439 982,981 0,542 -440,982 -982,982 -542,0 -982,-440 -982,-982 0,-542 440,-981 982,-981z"/>
   <g>
    <polygon class="fil4" points="5882,6692 5904,5814 6044,5544 6253,5544 6225,6692 "/>
    <polygon class="fil5" points="6044,5545 6044,6692 5880,6692 5902,5812 "/>
    <polygon class="fil4" points="6384,6692 6406,5811 6548,5544 6805,5544 7042,6227 7053,5544 7395,5544 7368,6692 6983,6692 6743,6015 6727,6692 "/>
    <polygon class="fil6" points="5023,6513 5023,6513 "/>
    <polygon class="fil6" points="5023,6513 5023,6513 "/>
    <polygon class="fil7" points="5331,6058 5331,6058 "/>
    <polygon class="fil7" points="5331,6058 5331,6058 5331,6058 "/>
    <polygon class="fil8" points="5742,5848 5742,5848 5742,5848 "/>
    <polygon class="fil4" points="204,6692 226,5812 366,5544 1214,5544 1202,5946 862,5946 866,5769 567,5769 553,6470 849,6470 853,6287 1196,6287 1186,6692 "/>
    <path class="fil4" d="M1345 6692l22 -880 140 -268 852 0 -22 880 -140 268 -852 0zm365 -923l-15 701 299 0 16 -701 -300 0z"/>
    <path class="fil4" d="M3631 6692l22 -878 141 -270 851 0 -28 1148 -343 0 9 -465 -299 0 -9 465 -344 0zm659 -686l4 -239 -298 0 -6 239 300 0z"/>
    <polygon class="fil4" points="4776,6692 4798,5809 4938,5544 5144,5544 5122,6467 5760,6467 5749,6692 "/>
    <polygon class="fil4" points="7526,6692 7547,5812 7688,5544 8534,5544 8524,5767 7889,5767 7883,6006 8488,6006 8477,6229 7878,6229 7872,6467 8509,6467 8499,6692 "/>
    <polygon class="fil5" points="6548,5545 6548,6692 6384,6692 6405,5812 "/>
    <polygon class="fil5" points="4938,5545 4938,6692 4774,6692 4796,5812 "/>
    <polygon class="fil5" points="3793,5545 3793,6692 3629,6692 3651,5812 "/>
    <polygon class="fil5" points="366,5545 366,6692 202,6692 224,5812 "/>
    <polygon class="fil9" points="1711,5768 1695,6470 1352,6543 1367,5812 "/>
    <polygon class="fil5" points="1508,5545 1508,6692 1344,6692 1366,5812 "/>
    <polygon class="fil5" points="7689,5545 7689,6692 7526,6692 7547,5812 "/>
    <path class="fil4" d="M3139 6287l-66 -60 -227 0 -13 465 -343 0 22 -880 139 -268 850 0 -8 331 -114 246 103 97 -9 474 -344 0 10 -405zm11 -417l4 -101 -299 0 -6 237 237 0 64 -136z"/>
    <polygon class="fil5" points="2650,5545 2650,6692 2487,6692 2508,5812 "/>
   </g>
   <path class="fil0" d="M949 7310c35,0 46,-18 46,-47l0 -348 -47 0 0 96 -90 0c-99,0 -124,57 -124,149 0,96 25,150 124,150l91 0zm-1 -260l0 200c0,15 -4,21 -20,21l-61 0c-72,0 -83,-37 -83,-111 0,-70 11,-110 83,-110l81 0zm357 260l0 -39 -146 0c-60,0 -68,-46 -68,-95l177 0c34,0 45,-18 45,-52 0,-90 -56,-116 -136,-116 -101,0 -135,44 -135,154 0,90 18,148 107,148l156 0zm-214 -172c0,-68 25,-92 87,-92 50,0 85,18 85,74l0 3c0,6 -2,15 -13,15l-159 0zm505 172l0 -39 -111 0c-74,0 -85,-41 -85,-111 0,-68 11,-111 85,-111l105 0 0 -38 -113 0c-102,0 -127,59 -127,149 0,93 25,150 127,150l119 0zm170 -302c-107,0 -153,39 -153,151 0,113 46,154 153,154 107,0 153,-41 153,-154 0,-112 -46,-151 -153,-151zm-104 151c0,-84 28,-113 104,-113 76,0 103,29 103,113 0,85 -27,116 -103,116 -76,0 -104,-31 -104,-116zm304 151l47 0 0 -179c0,-55 19,-82 71,-82l24 0 0 -38 -33 0c-73,0 -109,34 -109,108l0 191zm172 -299l0 38 145 0c30,0 42,18 42,43l0 36 -132 0c-55,0 -78,31 -78,90 0,62 23,92 78,92l133 0c35,0 47,-15 47,-45l0 -172c0,-49 -25,-82 -78,-82l-157 0zm187 155l0 90c0,9 -5,15 -15,15l-108 0c-29,0 -37,-20 -37,-53 0,-32 8,-52 37,-52l123 0zm201 245l54 0c33,0 43,-16 43,-38 0,-27 -18,-36 -39,-36l-7 0c-2,0 -5,0 -5,-3 0,0 1,-3 2,-4l10 -20 82 0 0 -39 -111 0c-74,0 -86,-41 -86,-111 0,-68 12,-111 86,-111l104 0 0 -38 -113 0c-101,0 -127,59 -127,149 0,96 27,150 135,150l-15 30c-2,3 -4,7 -4,12 0,8 5,13 18,13l21 0c5,0 16,0 16,8 0,9 -8,10 -18,10l-46 0 0 28zm309 -403c-107,0 -153,39 -153,151 0,113 46,154 153,154 107,0 153,-41 153,-154 0,-112 -46,-151 -153,-151zm-104 151c0,-84 28,-113 104,-113 76,0 104,29 104,113 0,85 -28,116 -104,116 -76,0 -104,-31 -104,-116zm26 -177c8,-13 20,-28 36,-28 12,0 21,6 29,11l18 11c9,5 20,9 34,9 29,0 49,-23 62,-48l-24 -14c-9,15 -17,31 -36,31 -11,0 -21,-6 -28,-10l-21 -13c-10,-6 -19,-9 -33,-9 -27,0 -48,22 -61,44l24 16zm532 328l0 -39 -146 0c-60,0 -69,-46 -69,-95l178 0c34,0 45,-18 45,-52 0,-90 -56,-116 -136,-116 -101,0 -136,44 -136,154 0,90 19,148 108,148l156 0zm-215 -172c0,-68 26,-92 88,-92 50,0 85,18 85,74l0 3c0,6 -2,15 -13,15l-160 0zm263 172l181 0c57,0 74,-30 74,-76 0,-58 -37,-69 -98,-84l-59 -15c-32,-8 -55,-16 -55,-49 0,-27 10,-37 38,-37l156 0 0 -38 -161 0c-53,0 -81,24 -81,75 0,50 26,72 83,86l54 13c46,11 73,17 73,49 0,24 -11,37 -36,37l-169 0 0 39zm685 0l0 -39 -146 0c-60,0 -68,-46 -68,-95l178 0c33,0 44,-18 44,-52 0,-90 -56,-116 -136,-116 -100,0 -135,44 -135,154 0,90 18,148 107,148l156 0zm-214 -172c0,-68 25,-92 87,-92 50,0 85,18 85,74l0 3c0,6 -2,15 -13,15l-159 0zm447 172l91 0c96,0 123,-58 123,-151 0,-93 -27,-148 -123,-148l-89 0c-29,0 -49,13 -49,47l0 347 47 0 0 -95zm0 -243c0,-14 6,-18 18,-18l65 0c72,0 81,46 81,110 0,65 -9,112 -81,112l-83 0 0 -204zm260 243l48 0 0 -179c0,-55 19,-82 71,-82l24 0 0 -38 -33 0c-74,0 -110,34 -110,108l0 191zm414 0l0 -39 -146 0c-60,0 -69,-46 -69,-95l178 0c34,0 45,-18 45,-52 0,-90 -57,-116 -136,-116 -101,0 -136,44 -136,154 0,90 19,148 108,148l156 0zm-215 -172c0,-68 26,-92 87,-92 51,0 86,18 86,74l0 3c0,6 -2,15 -13,15l-160 0zm263 172l181 0c57,0 74,-30 74,-76 0,-58 -37,-69 -98,-84l-59 -15c-33,-8 -56,-16 -56,-49 0,-27 11,-37 39,-37l156 0 0 -38 -161 0c-53,0 -81,24 -81,75 0,50 25,72 82,86l55 13c46,11 73,17 73,49 0,24 -11,37 -36,37l-169 0 0 39zm554 0l0 -39 -146 0c-60,0 -69,-46 -69,-95l178 0c34,0 45,-18 45,-52 0,-90 -57,-116 -136,-116 -101,0 -136,44 -136,154 0,90 19,148 108,148l156 0zm-215 -172c0,-68 26,-92 87,-92 51,0 86,18 86,74l0 3c0,6 -2,15 -13,15l-160 0zm269 172l48 0 0 -241c0,-16 6,-20 17,-20l82 0c45,0 59,27 59,68l0 193 48 0 0 -202c0,-69 -36,-97 -101,-97l-107 0c-33,0 -46,18 -46,49l0 250zm459 0l0 -39 -20 0c-46,0 -64,-14 -64,-60l0 -162 84 0 0 -38 -84 0 0 -96 -47 0 0 96 -44 0 0 38 44 0 0 165c0,60 21,96 95,96l36 0zm284 0l0 -39 -146 0c-60,0 -68,-46 -68,-95l178 0c33,0 44,-18 44,-52 0,-90 -56,-116 -136,-116 -101,0 -135,44 -135,154 0,90 18,148 107,148l156 0zm-214 -172c0,-68 25,-92 87,-92 50,0 85,18 85,74l0 3c0,6 -2,15 -13,15l-159 0zm262 172l181 0c57,0 74,-30 74,-76 0,-58 -37,-69 -97,-84l-59 -15c-33,-8 -56,-16 -56,-49 0,-27 10,-37 38,-37l157 0 0 -38 -162 0c-52,0 -81,24 -81,75 0,50 26,72 83,86l54 13c46,11 74,17 74,49 0,24 -12,37 -37,37l-169 0 0 39zm643 0c-5,41 -36,58 -76,58l-124 0 0 39 124 0c94,0 123,-44 123,-126l0 -218c0,-45 -28,-52 -75,-52l-69 0c-99,0 -124,57 -124,149 0,96 25,150 124,150l97 0zm0 -39l-88 0c-72,0 -84,-37 -84,-111 0,-70 12,-111 84,-111l67 0c15,0 21,8 21,21l0 201zm358 39l0 -39 -146 0c-60,0 -69,-46 -69,-95l178 0c34,0 45,-18 45,-52 0,-90 -57,-116 -136,-116 -101,0 -136,44 -136,154 0,90 19,148 108,148l156 0zm-215 -172c0,-68 26,-92 87,-92 51,0 86,18 86,74l0 3c0,6 -2,15 -14,15l-159 0zm523 172l0 -39 -146 0c-60,0 -68,-46 -68,-95l178 0c33,0 44,-18 44,-52 0,-90 -56,-116 -136,-116 -100,0 -135,44 -135,154 0,90 18,148 107,148l156 0zm-214 -172c0,-68 26,-92 87,-92 50,0 86,18 86,74l0 3c0,6 -3,15 -14,15l-159 0zm531 172l-130 -129c-8,-7 -16,-17 -16,-27 0,-10 5,-17 11,-22l121 -121 -58 0 -99 100c-11,11 -22,25 -22,44 0,20 12,36 21,45l111 110 61 0zm-215 0l0 -395 -47 0 0 395 47 0z"/>
  </g>
 </g>
</svg>
